<svg xmlns="http://www.w3.org/2000/svg" viewBox="0 0 2273.51 685.11" preserveAspectRatio="xMinYMid" width="2273.51" height="685.11"><defs><style>.cls-1{fill:#1c45d5;}</style></defs><g id="レイヤー_2" data-name="レイヤー 2"><g id="レイヤー_2-2" data-name="レイヤー 2"><path class="cls-1" d="M137.57,110.19H11.43c-11,0-13.39,8.88-10,14.7,9.89,17,14.9,22.73,14.9,31.31V462.9c0,11.63-9.19,28.17-13.47,38s1.83,15.31,8.57,15.31H137c41.63,0,132.8-51.43,132.8-244.93C269.76,123.67,174.92,110.19,137.57,110.19Zm47.15,186.15c-.67,28.83-12.83,175.13-71.64,175.13-19,0-19-21.43-19-33.07V172.65c0-17.76,16.54-35.51,35.52-35.51C175.53,137.14,186.56,216.74,184.72,296.34Z"/><ellipse class="cls-1" cx="326.78" cy="481.27" rx="31.84" ry="34.9"/><path class="cls-1" d="M424.23,110.19h171.5c36.75,0,79.95,7.18,79.95,70.76,0,15.18,4.28,46.73-53.12,109.38,0,0-15.34,11.52-11.08,35.87,3.63,20.73,28,89.76,66.71,156.92,5.61,9.73,15.94,18.32,13.74,25.64-1.8,6-12,11.33-33.78,1.19C618.42,491.45,542.06,410.2,524,304.3c-2.62-15.31,1.17-24.18,12.83-23.6s29.73,1.54,41.42-18.08c16.33-27.41,11.67-119-30.92-119-33.25,0-38.5,49.58-38.5,64.75V454c0,15.75,15.17,40.84,20.42,46.67s8.33,15.55-8.43,15.55H424.13c-11.67,0-10.4-8.59-5.15-15.59s15.17-23.88,15.17-43.71V168.7c0-15.75-12.88-37.33-19-44.91S415,110.19,424.23,110.19Z"/><path class="cls-1" d="M990.06,493c-14-14-19.93-33.84-19.93-52.5V260.93c0-15.7-4.57-21.06-18-21.06H866.4c-70,0-113.22,55.91-123.67,72.75-46.37,74.67-20.48,143.05-9.92,158.83,29.92,44.72,85.23,44.72,130.74,44.72s61.84-17,68.94-17,10.71,17,44.55,17S995.9,498.87,990.06,493Zm-96.83-50.75c0,15.16-8.75,40.83-40.83,40.83S802.81,451,802.81,391.54c0-51.34,35-116.09,68.84-116.09,9.91,0,21.58,6.42,21.58,30.34Z"/><path class="cls-1" d="M1252.56,239.87h-84c-99.75,0-155.75,77-155.75,166.83,0,105,81.67,109.47,94.5,109.47h75.25c0,120.37-108.5,154.2-122.5,156s-11.65,12.26,0,12.83c56.71,2.8,136.94-31.63,170.92-83.41,21.09-32.15,21.58-73.81,21.58-93.92V305.2c0-25.66,11.09-33.83,15.75-47.25S1270.64,239.87,1252.56,239.87Zm-70,246.35h-37.65c-10.1,0-47.16-12.21-47.16-83.39s33.89-122.13,56.85-122.13c16,0,28,2.11,28,24.85Z"/><path class="cls-1" d="M1556.85,371.4c-2.72-130.95-110.25-131.53-135.27-131.53s-132.55.58-135.26,131.53c-1.86,89.42,39.79,144.77,135.26,144.77S1558.71,460.82,1556.85,371.4ZM1421.58,489.67c-33,0-54.29-35.62-54.29-122.76s28.74-103,54.29-103,54.3,15.9,54.3,103S1454.59,489.67,1421.58,489.67Z"/><path class="cls-1" d="M1858.52,371.4c-2.72-130.95-110.25-131.53-135.27-131.53S1590.7,240.45,1588,371.4c-1.85,89.42,39.79,144.77,135.27,144.77S1860.37,460.82,1858.52,371.4ZM1723.25,489.67c-33,0-54.3-35.62-54.3-122.76s28.75-103,54.3-103,54.3,15.9,54.3,103S1756.25,489.67,1723.25,489.67Z"/><path class="cls-1" d="M1896.41,239.87h173.21c41.13,0,93.78,49.83,95,99.07,1.19,47.71-8.13,96.22-21.44,129.77-5.13,12.94-2.31,20.85,2.32,26.07s20.82,21.39,4.64,21.39h-80c-10.43,0-17.35-7.49-12.71-18.5s20.27-58.51,20.27-97.32,1.74-133.24-67.78-132.08c-17.41.29-31.86,7-31.86,50.4V475.08c0,16.22,7,23.17,13.33,28.39s6.91,12.7-2.9,12.7h-95c-8.68,0-15.64-5.17-8.68-12.13s17.37-33.59,17.37-61.4V305.34c0-15.64-9.26-44-14.48-51.55S1880.19,239.87,1896.41,239.87Z"/><path class="cls-1" d="M2270.36,186.32c-6.12-36.95-11.81-53.92-38.88-98.82.21-.32,33.62-79.26,34.05-80.55S2266.9,0,2266.9,0a64.44,64.44,0,0,0-5.24,5.12c-1.83,2.58-37.7,60.26-42,67.24-2.25-4.73-29.32-33.3-40.92-40.71-6.53-4.17-15.47-6.23-17.83-6.55-.54-2.15,2-4.61,3.33-5.69,2.34-2,6.92-2.49,11.28-2.47-3.65-1.83-12.15-1.83-19.55-.65a123,123,0,0,0-21.59,6c-1.82.64-2.36,1.72-3.54,3.11-3.25.06-3.23.32-4,1.29s-4.29,10.63-4.29,12.14,2,4.87,2.88,4.44c-1-1.42-1.16-5.3,4.53-8.63,8.81-5.15,26.45-2.08,28.14-1,5.05,3.33,3.87,5.8,4.08,8.92s1.72,3.33,2.9,3.86,9.88,6.23,12,11.5c9.33,22.86,4.62,48.12,2.36,59.61-8.59.86-15.65,9-15.65,9s.38,2.62.38,2.91-3.29-2.62-3.29-2.62a12,12,0,0,0-1.84,1.75,38.85,38.85,0,0,0,1.26-4.36c0-.58-1.16-.87-1.26-1.64a2,2,0,0,0,1.07-2.71c-.39-.68-3.68-10.46-4.46-12.3-.58.58-1.25-1.45-1.25-1.45s-2.71-3.58-3.29-4.65-9.3-2.71-10.56-2.61a48.94,48.94,0,0,1-3.29-4.45A32.69,32.69,0,0,0,2133.5,90a8.26,8.26,0,0,0-1,1.61c-.09,1.06,2.05,9.83,2.53,11.86-1.84,1.26-3.68,4.55-4.16,5.23a8.12,8.12,0,0,0-.78,3.38c0,.78,1,7.46,1.07,8.91.48.19,1.74,2.32,1.74,2.32l-.48.87s4.84,6.68,5.22,7.26a8.42,8.42,0,0,1,1.26,3.1,2.44,2.44,0,0,0-1.45,1.74c0,.49-.1,3.49-.1,3.49-.86.14-5.39,2.88-6.83,3.89a9.46,9.46,0,0,0-7.5.29c-3.46,1.58-7.79,14.42-7.65,16a30.67,30.67,0,0,1-2-3.21c-.52-10.23-.79-21-.72-25.34a151.76,151.76,0,0,0-1.73-22.93c3.32-.86,3.18-1.73,2.74-3.32s-3.6-14.42-3.6-14.42,3-.67,4.83-1.25,2-2.21,1.23-4.23-5.34-15.71-5.34-15.71a25.46,25.46,0,0,0,3-5.48c.58-1.79,0-1.73-1.44-2.45a79.53,79.53,0,0,1-10.67-8.08,55.68,55.68,0,0,0,4.16-6.79c1-2-1-1.72-2.15-2.15l-10.39-3.89a24.76,24.76,0,0,1,0-4.89c.26-2.71-1.26-2.18-2.84-1.46s-12.84,3.89-14.66,4.33a11.89,11.89,0,0,0-2.79-6.2c-1.65-1.65-2.74,1.44-3.46,2.16s-17.67,13.23-17.67,13.23l-.65-1.12s.92-.67,1.73-1.4c11.54-10.42,18.75-23.11,21.64-27.87s-.07-5.17-2.17-1.59c-4.69,8-22.64,23.51-28.84,28.12.43-.86,8.42-14.47,11.45-20.67s.78-6.79-.95-3.91-23.48,33.52-24.77,35.25a129,129,0,0,1-9.38,10.39c-1.73,1.44,0,2.45,0,4.18a28.59,28.59,0,0,1-1.15,7.93s-2.17,2.39-2.17,3.14.22,2.58.22,3.65.64,1.72,1.83,2.79a5.9,5.9,0,0,1-.76,3c-.32.43-4.83,7.73-5.8,8.7s.11,1.93.43,2.36c.12.15,2.68,2,3.53,1.94,1.74,2.09,3.93,4.47,6.42,5.27-1.91-1.84-2.86-7.21-2.86-7.21s2.46,2.44,4.3,2.38c-.84-1-1-4.63-1-4.63s2.27,2.6,4.41,2.84c-.9-.79-.76-4.56-.76-4.56s6.47,7.23,5.6,6.37a7.26,7.26,0,0,0,1.28,4s-2.15,1.18-2.9,1.72a9.92,9.92,0,0,1-3.32-2.5c-.4,2.39,1.81,5.29,3,7.44.72,1.31,2.9,1.5,4,1.18s1.5-3.22,2.58-3.76,4.29,0,6.33-1.51a9.45,9.45,0,0,0,2.05-4.83c.32-2.25,1.93-11.49,2.47-13.21s6.33-4.08,6.33-4.08l1.72-.43c1.72-.43.86-1.4.43-1.93a20.88,20.88,0,0,0-2.9-3.44s3.65-.86,5.26-1.08.76-1.18.43-1.82a12.34,12.34,0,0,0-1-1.51s5.69-1.16,7.53-1a24.45,24.45,0,0,1,4.82,1.15s1.4-2.36,1.93-2.36,2,2.47,2,2.47.33.11.33,1,0,6-.11,6.87c-.22,1.5-1.62,3.92-2.79,6.87,0,0,3.54-1.07,5.15-1.71,0,0-1.93,5.69-2.36,6.76s-9.56,14.93-9.56,14.93a31.32,31.32,0,0,0,3.54,1.83s-5.37,13.75-5.9,14.93-5.16,8.16-5.16,8.16a9.43,9.43,0,0,1,.54,3c-1,.64-19.55,23-21.7,25.56a44.5,44.5,0,0,1,6.55,5.8c-1.39.54-15.89,10.31-17.08,13.32,1.19,0,5.91,1.61,7.85,2.47-1.29,1.18-15.15,5.16-17.94,4.73,0,1.29,1.5,6.76,1.72,8.37a28.54,28.54,0,0,0-3.23,3.44,1.53,1.53,0,0,1,.76,2.36c-.54.86-8.06,10.53-9.56,12.36.53,1.18-.22,2.79-2.69,4.61s-3.86-.85-5.15-1.82-13.21-9.56-14.61-10.2-2.36,1.39-3.55,3.22c-.64-.43-4.18-2.58-5.37-3.12s-1.82.65-2.47,1.83-9.66,13-11.6,14.82c5.18,1.53,4.81,9.81,5.35,11.64.42.32,2.54,1.27,4.47,2.45s2.24.39,1.78-.13a17.92,17.92,0,0,1-3.29-3.91,7.38,7.38,0,0,1,.61-4.46c1.74,2,.5,2.39,1.43,3.75a14,14,0,0,0,3.4,3.55c2,1.42,1.78.48,1.45-.59a18.54,18.54,0,0,1-1.47-3.8,28.57,28.57,0,0,1-.3-6.78c0-.54,2.47-3.87,3.22-3.87s3.33,1.94,6.34,2.37a5.82,5.82,0,0,0-4.62,4.29,23,23,0,0,0,.42,8.31c.86,2.8,1,1,1.27-.31.35-2.05.74-4,1.37-4.75a23.06,23.06,0,0,1,5.86-4.43l1.82-.54c1.83-.53,9.35,6.23,10.63,8.17.43-.65,3.23-6.77,3.23-6.77a37.11,37.11,0,0,1,3.86,2.26c.86-.86,10.31-4.62,12.36-5.27s.32-2.68-.76-3c0,0,3.87-6.44,7.09-8.7-1.5,3.44-6.66,29.86-6.66,29.86s3.23-1.18,5.48-1.71c-.86,6.33,46.31,22.3,48.57,22.83-.54,1.72,8.44,58.77,10.38,59.3s7.86-.29,10.65-.83c-.43.43-2,5.37-2.47,6.34s-1.72,3.22-1.4,5.26a49.48,49.48,0,0,1-3,4.62,7.24,7.24,0,0,0-1.61,3.65c0,.86.53,7.84.53,9s.75,1.93,2.37,3,1.71,0,1.07-1.18-.21-3.22-.11-4.51,1.83-2,3.12-2.36a10.69,10.69,0,0,0,1,4c.43.75,1.94,3.33,3.44,4.19s2.36.43,1.61-.86-.86-4.62-1.29-6.12a18.37,18.37,0,0,1,.65-8.7,56.43,56.43,0,0,1,6.44-12.35c1.18-1.29,1.72-2,1.61-2.79a10.1,10.1,0,0,0-1-2.91c-.54-1.07-1.4-.85-2.47-.85s-3-1.29-4-2.58a102.35,102.35,0,0,1-6-8.85c.32-.22,1.31-1.22,3.46-3,1.93,3.22,11.75,17.5,18.78,23.82,5.6,5,5.26,2.36,7,2.58s9.56-1,14.29-1.61c-2.79,5.26-8.81,8.16-11.28,8.8s-2,2.15-2,3.23.75,8.8.64,11.17c-.53.75-10.31,10.42-12.13,11.49s-1.83,3.44-2.37,4.4-5.15,4.41-7.62,5.59a33.3,33.3,0,0,0-5.48-.75c-1.61,0-5.26,2.9-6.23,3.65s-.54,3-.32,5.26c-1.72,2.15-1.83,7.84-1.4,10.21s1.29,2.25,1.61.75,2.58-4.84,4.73-5.16c-1.08,2.9.11,6.77,1.61,8.59s3.33,1.51,2.58.11,1.07-6.23,1.93-7.62,2.9-3.44,4.83-3c-.64,1.61-.21,4.51.65,6.76s2,1.72,1.93.33,1.83-5.48,2.47-6.45a13.47,13.47,0,0,1,3.55-4.19c1.72.54,4.65-1.29,6.47-2.15s2-3.19,1.83-4.26c.54-.33,6.09-5.51,7.38-6.48s1.29-3.11,1.29-4.29c3.22-3.12,11.17-1.61,12.13.21s1.56.33,1.51-1.18c-.11-3.33-2.47-7.95-4.94-8.81,3.76-13.31,17.29-32.54,19.76-35.23s2.26-3.75,2.26-5.69-3.87-3.44-5.48-4.19-2.9-.21-4.08,0-8.92,1.18-16.76,2.47c3.12-.86,6.77-4.94,7.84-5.8s-.11-2-1.07-3.11c.86-1.4,15.94-11.76,17.83-12.35,6.12-1.94,7.09-3.12,8.27-4.51s10.42-6.23,12.89-7.74,1.39-2.79.53-3.65-3.43-3.33-3.43-3.33,8.37-9.13,9.13-10,.53-1.72.1-2-.53-.64-1.28-1.29c.32-.53,13.89-12.71,17.07-14.82-5.76,20.85-13.88,29.59-13.88,29.59a55.71,55.71,0,0,0,14.83-20.73c.61,2.85-.81,7.12-2.77,12.3,7.24-10.26,11-26,11-26,37.17-9.67,26.51,29.81,22.37,36.32-9.11,14.31-33.18,16.16-43.83,21.32-23.1,11.17-29.07,18.83-32.1,37.82-1.2,7.51,1.47,10.87,2.44,10.33s.38-5,1.57-8.39c7.78-22,22.49-25.33,25.82-26.84,0,0,.75,2.9,1.07,4a1.71,1.71,0,0,0,2.36,1.07c2.15-1.18,15-7.19,17.62-8.7,0,0,1.29,1.83,1.72,2.69s1.93.53,2.79.1,17.29-11.49,19.22-12.78c.54.32,4.84,2,6,2.69s1.4.11,2.15-1,9.56-16,12-23.52l5.69.86c.75.11,2,.32,2-.86s-.64-20.73-.86-22.77a64.06,64.06,0,0,0-1.83-9.63c.43,0,6.36.34,7.11,0s.75-1,0-2-8.93-11.85-11.4-13.24c0,0,2.47-1.94,3.44-2.58s0-1.61-1.19-2.47-13-7.64-14-8.29-1.82-.75-4.51-.86c0,0,2.56-3.1,3.64-4.06s.61-1.38-.74-1.74c-5.69-1.5-17.18-.86-21.27-.64,6.2-21.75,14.42-25.54,18.26-26,17-2.25,24.63,31.68,22.11,39.91,8.85-11.48,11.31,36.28,8.87,46.44C2278.23,238.84,2270.91,189.61,2270.36,186.32Z"/></g></g></svg>