<svg xmlns="http://www.w3.org/2000/svg" xmlns:xlink="http://www.w3.org/1999/xlink" viewBox="0 0 750.94 965.35" preserveAspectRatio="xMinYMid" width="750.94" height="965.35"><defs><style>.cls-1{fill:#c5cadc;}</style></defs><g id="レイヤー_2" data-name="レイヤー 2"><g id="レイヤー_4" data-name="レイヤー 4"><path class="cls-1" d="M742.91,446.5c-14.62-88.28-28.23-128.83-92.9-236.1.51-.77,80.33-189.4,81.36-192.48s3.29-16.6,3.29-16.6-10.47,9.33-12.53,12.24c-4.37,6.16-90.08,144-100.35,160.65C616.39,162.92,551.72,94.65,524,77c-15.61-10-36.95-14.89-42.6-15.66-1.28-5.13,4.88-11,8-13.6,5.58-4.69,16.54-5.94,26.94-5.9-8.72-4.37-29-4.36-46.7-1.54-24.13,3.85-49,13.47-51.59,14.37-4.36,1.54-5.64,4.1-8.47,7.44-7.75.13-7.7.77-9.49,3.08s-10.27,25.41-10.27,29,4.84,11.64,6.9,10.62c-2.34-3.41-2.79-12.67,10.81-20.63,21.05-12.31,63.2-5,67.24-2.31,12.06,8,9.24,13.86,9.75,21.3s4.11,8,6.93,9.24,23.61,14.89,28.74,27.46c22.3,54.63,11,115,5.65,142.44-20.53,2.05-37.41,21.54-37.41,21.54s.92,6.24.92,6.94-7.86-6.25-7.86-6.25a28.87,28.87,0,0,0-4.39,4.17c.23-.7,3-9,3-10.41s-2.77-2.08-3-3.93c3.47-1.85,3.47-4.86,2.54-6.48s-8.79-25-10.64-29.37a6.19,6.19,0,0,0-1.39,5.08c.23,1.39,5.55,18,5.55,18s-8.36-15.09-9.06-17.63,1.89-9,1.89-9-6.47-8.56-7.86-11.11-22.2-6.47-25.21-6.24A115.65,115.65,0,0,1,425,227c-2.31-3.93-9.1-10.67-9.1-10.67a20.08,20.08,0,0,0-2.49,3.83c-.23,2.55,4.89,23.49,6,28.35-4.39,3-8.79,10.87-9.94,12.49s-1.85,6.24-1.85,8.09,2.31,17.81,2.54,21.28c1.16.47,4.16,5.56,4.16,5.56L413.22,298s11.56,16,12.49,17.34,2.77,4.86,3,7.41c-2.09.92-3.47,3-3.47,4.16s-.24,8.33-.24,8.33c-2.06.34-12.89,6.87-16.33,9.28-2.07-1-9.65-3.1-17.92.69s-18.6,34.46-18.26,38.25c-.89-1.53-4.57-6.44-4.85-7.66-1.23-24.46-1.87-50.27-1.7-60.56.35-20-2.75-47.55-4.13-54.79,7.92-2.06,7.58-4.13,6.55-7.92s-8.62-34.46-8.62-34.46,7.07-1.62,11.55-3,4.65-5.27,2.92-10.09-12.74-37.56-12.74-37.56,5.36-7.34,7.23-13.09c1.4-4.28,0-4.13-3.44-5.86s-18.61-12.75-25.5-19.29a132.26,132.26,0,0,0,10-16.23c2.37-4.85-2.37-4.1-5.13-5.13l-24.83-9.31a58.35,58.35,0,0,1-.06-11.66c.6-6.5-3-5.22-6.81-3.5s-30.66,9.31-35,10.34c-.18-3.35-2.81-11-6.66-14.82s-6.54,3.45-8.27,5.17-42.22,31.61-42.22,31.61L219.17,113s2.19-1.6,4.14-3.35C250.87,84.75,268.1,54.43,275,43.06s-.15-12.34-5.17-3.79c-11.21,19.1-54.09,56.16-68.91,67.19,1-2.07,20.12-34.58,27.36-49.4s1.85-16.23-2.28-9.34S169.9,127.82,166.8,132s-18.26,21.37-22.39,24.81,0,5.86,0,10-.69,13.1-2.76,18.95c0,0-5.17,5.71-5.17,7.5s.51,6.16.51,8.73,1.54,4.1,4.37,6.67a14.19,14.19,0,0,1-1.8,7.19c-.77,1-11.55,18.47-13.86,20.78s.26,4.62,1,5.65c.27.36,6.4,4.87,8.42,4.63,4.16,5,9.4,10.67,15.34,12.6-4.55-4.41-6.84-17.24-6.84-17.24s5.89,5.83,10.28,5.7c-2-2.49-2.31-11.08-2.31-11.08s5.41,6.21,10.53,6.8c-2.15-1.89-1.8-10.91-1.8-10.91s15.44,17.29,13.37,15.22c-.48,3.18,2,8.4,3.05,9.68,0,0-5.13,2.82-6.93,4.1,0,0-5.8-2.74-7.94-6-1,5.7,4.35,12.63,7.17,17.76,1.73,3.13,6.93,3.59,9.5,2.82s3.59-7.7,6.16-9,10.26,0,15.14-3.59c1.32-1,4.11-6.16,4.88-11.55s4.61-27.46,5.9-31.57,15.14-9.75,15.14-9.75l4.11-1c4.1-1,2-3.33,1-4.62s-3.85-5.64-6.93-8.21c0,0,8.73-2.05,12.58-2.56s1.79-2.83,1-4.37a28.93,28.93,0,0,0-2.3-3.59s13.59-2.79,18-2.5,11.52,2.76,11.52,2.76,3.33-5.65,4.62-5.65,4.87,5.9,4.87,5.9.77.26.77,2.31,0,14.4-.25,16.43c-.52,3.59-3.87,9.37-6.68,16.42,0,0,8.47-2.56,12.32-4.1,0,0-4.62,13.6-5.64,16.16S252,269.94,252,269.94a75.39,75.39,0,0,0,8.47,4.36S247.6,307.15,246.32,310,234,329.48,234,329.48s1.54,4.36,1.29,7.18c-2.31,1.54-46.71,54.92-51.85,61.08,1,.52,12.32,9.5,15.66,13.86-3.34,1.28-38,24.64-40.81,31.82,2.83,0,14.12,3.85,18.74,5.91-3.08,2.82-36.19,12.32-42.86,11.29,0,3.08,3.59,16.17,4.11,20a66,66,0,0,0-7.7,8.21c2.56.77,3.08,3.59,1.79,5.65S113.13,519.65,109.53,524c1.29,2.82-.51,6.67-6.41,11s-9.24-2-12.32-4.36S59.23,507.84,55.9,506.3s-5.65,3.34-8.47,7.7c-1.54-1-10-6.16-12.84-7.44s-4.36,1.54-5.9,4.36S5.59,542,1,546.34c12.35,3.65,11.48,23.43,12.76,27.8,1,.77,6.07,3,10.69,5.86s5.35.93,4.26-.3c-1.79-2-5.81-5.25-7.86-9.36-.46-.92-.61-7.32,1.45-10.66,4.17,4.68,1.2,5.73,3.41,9a33.87,33.87,0,0,0,8.13,8.48c4.83,3.4,4.24,1.15,3.47-1.42-.29-1-2.62-4.68-3.53-9.08-1.45-7.07-.71-15.4-.71-16.19,0-1.28,5.91-9.24,7.7-9.24s8,4.62,15.15,5.65c-7.7,1.8-10.53,7.44-11,10.26s-1,13.19,1,19.86,2.5,2.33,3-.75c.83-4.9,1.76-9.59,3.28-11.35,5.09-6,14-10.58,14-10.58L70.52,553c4.37-1.28,22.33,14.88,25.41,19.5,1-1.54,7.7-16.17,7.7-16.17a91.91,91.91,0,0,1,9.24,5.39c2-2.05,24.64-11,29.51-12.57s.77-6.42-1.79-7.19c0,0,9.23-15.4,16.93-20.78-3.59,8.21-15.91,71.34-15.91,71.34s7.7-2.82,13.09-4.11c-2,15.15-.26,53.67-.26,53.67s9-3.62,12.58-4.65c15.65,26.95,36.44,37.47,45.17,42.35s21.81,7.18,27.2,8.47c-1.28,4.1,1.54,15.65,1.54,15.65l-12.57-12.06s4.62,19,5.9,20.53,20.5,33,20.5,33l-20.5,7.32s56.67,30.73,61.28,32,18.79-.71,25.46-2c-1,1-4.87,12.83-5.9,15.14s-4.11,7.7-3.34,12.58c0,0-5.13,8.72-7.18,11s-3.85,6.67-3.85,8.73S302,848.91,302,851.73s1.8,4.62,5.65,7.19,4.1,0,2.56-2.82-.51-7.7-.25-10.78,4.36-4.88,7.44-5.65c-.26,1.8,1.28,7.7,2.31,9.5s4.62,8,8.21,10,5.65,1,3.85-2.06-2-11-3.08-14.62-1-12.32,1.54-20.79,12.58-26.44,15.4-29.52,4.11-4.87,3.85-6.67a24.51,24.51,0,0,0-2.31-6.93c-1.28-2.56-3.34-2.05-5.9-2.05s-7.19-3.08-9.5-6.16-10.53-14.21-14.38-21.14c.77-.52,3.12-2.92,8.25-7.29,4.62,7.7,28.09,41.81,44.88,56.92,13.39,12,12.58,5.64,16.68,6.16s22.85-2.31,34.14-3.85c-6.68,12.57-21.05,19.5-27,21s-4.88,5.13-4.88,7.7,1.8,21,1.54,26.69c-1.28,1.8-24.63,24.89-29,27.46s-4.36,8.21-5.64,10.52-12.32,10.53-18.22,13.35a79.87,79.87,0,0,0-13.09-1.8c-3.85,0-12.58,6.93-14.89,8.73s-1.28,7.18-.77,12.57c-4.1,5.14-4.36,18.74-3.33,24.38s3.08,5.39,3.85,1.8,6.16-11.55,11.29-12.32c-2.57,6.93.26,16.17,3.85,20.53s7.95,3.59,6.16.26,2.56-14.89,4.62-18.22,6.93-8.22,11.55-7.19c-1.54,3.85-.52,10.78,1.54,16.17s4.87,4.11,4.62.77,4.36-13.09,5.9-15.4,3.33-6.16,8.47-10c4.1,1.29,11.1-3.08,15.47-5.13s4.88-7.63,4.37-10.2c1.28-.77,14.55-13.15,17.63-15.46s3.08-7.45,3.08-10.27c7.69-7.44,26.69-3.85,29,.51s3.7.78,3.59-2.82c-.26-8-5.9-19-11.81-21,9-31.83,41.32-77.76,47.22-84.18s5.39-9,5.39-13.6-9.24-8.21-13.08-10-6.93-.51-9.76,0-21.3,2.82-40,5.9c7.44-2,16.17-11.8,18.73-13.86s-.25-4.87-2.56-7.44c2.05-3.34,38.1-28.09,42.6-29.51,14.63-4.62,16.94-7.45,19.76-10.78s24.89-14.89,30.8-18.48,3.33-6.67,1.28-8.73-8.21-8-8.21-8,20-21.82,21.81-23.87,1.28-4.1.26-4.87-1.29-1.54-3.08-3.08c.77-1.29,33.2-30.38,40.8-35.42-13.76,49.83-33.18,70.71-33.18,70.71s23.79-19.42,35.45-49.53c1.45,6.8-1.94,17-6.63,29.38,17.31-24.52,26.18-62.11,26.18-62.11,88.79-23.1,63.34,71.23,53.44,86.79-21.77,34.2-79.29,38.62-104.73,50.93-55.18,26.69-69.46,45-76.7,90.37-2.86,18,3.52,26,5.83,24.7s.91-12,3.76-20c18.6-52.54,53.72-60.53,61.68-64.13,0,0,1.8,6.93,2.57,9.5a4.08,4.08,0,0,0,5.64,2.56c5.14-2.82,35.93-17.19,42.09-20.78,0,0,3.08,4.36,4.11,6.41s4.62,1.29,6.67.26,41.32-27.46,45.94-30.54c1.28.77,11.55,4.88,14.37,6.42s3.34.25,5.13-2.31,22.84-38.24,28.75-56.21c0,0,11.8,1.8,13.6,2.05s4.87.77,4.87-2.05-1.54-49.53-2.05-54.41-2.33-16.33-4.38-23c1,0,15.19.8,17,0s1.79-2.31,0-4.87-21.34-28.32-27.24-31.66c0,0,5.9-4.62,8.21-6.16s0-3.85-2.82-5.9-31-18.26-33.36-19.8-4.36-1.79-10.78-2c0,0,6.13-7.4,8.69-9.71s1.47-3.3-1.76-4.15c-13.6-3.59-41.06-2.05-50.82-1.54,14.8-52,34.44-61,43.62-62.23,40.54-5.39,58.85,75.68,52.84,95.34,21.13-27.41,27,86.69,21.19,111C761.71,572,744.22,454.37,742.91,446.5ZM317.74,498c-23,15.18-72.89,41.48-74.89,38C241,532.77,282.42,511.18,317.74,498Zm-87.92,26.7c-1.81-4.52,19.79-18.54,59.11-30.31C264.64,513.69,230.82,527.22,229.82,524.71Zm35.82,58.61c-4.51-6-24.8-28.55-24.8-28.55,10-2.51,65.79-27.54,68.38-29.31,5.52-3.76,13-5.37,8.27,2.26C311,538.24,271.4,578.82,265.64,583.32ZM302.46,657c-3.89-1.8-21-20.29-25.55-43.34-.86-4.42-2.25-14,11.77-7a168.37,168.37,0,0,1,43.59,31.56c1.91,1.91,3,3.83.5,7.52C328,652.71,312.23,661.48,302.46,657Zm35.82,36.32c-10.77-2.51-15.25-10.54-16.78-12.53-4.26-5.51.5-14-5.76-17.28,6-.25,20.79-6,24-12.27,4.76,5.26,11.31,17.64,14,26.3S349.05,695.79,338.28,693.29Zm141-383.5c2.51,1.26,7.52,4,6.77,5.76s-1.76,6.52-4,7.77-14.53,4.76-14.53,4.76c4.76-.25,5.76.75,4.76,1.75s-4.51,3.26-6,3.51-14.78,3.51-14.78,3.51l8.77-5.26,1.32-2.93-13.35,7.68-6-.5c4.26-2,28.31-15.53,30.06-16.78s2.71-4.45-.27-4.88A60.79,60.79,0,0,1,479.3,309.79ZM471,297l-2.26,4s5.77-.76,7.27-.76c-7.77,3.51-35.07,18.79-37.07,20.8s-1.51-3.51,2-6.52C443.68,312.24,471,297,471,297Zm-48.35-11.77c-2.75,1.75-3.5,3.25-4.75,5.51-1.26-4.26,2.5-10.52,4.5-11.78S438,271.47,440,270.72s7.74-1.2,13,.5c7,2.25,5,3.76,2.76,3.51a51.35,51.35,0,0,0-12,1C440.73,276.48,425.45,283.49,422.69,285.25ZM393.89,401c.75-4.51,5.51-19.54,8.52-23.55s27.3-30.3,29.3-32.31,6.26-4,4,3.76-9,30.81-8.27,37.82c-7,6.52-23.79,20.54-25.8,22.8s-4.5,3.75-5.51,1.75C395.34,409.62,393.14,405.48,393.89,401Zm43.65-11.23s-12.09,10.73-14.09,12.48-21,18.29-22.8,20.54-6,3.51-1.75-2c3.06-4,21.54-22,23.29-23.3S437.54,389.74,437.54,389.74Zm-63,40.29c2.21-5.4,5.64-9.81,5.89-10.55s1.71-1.71.49-2.94-8.1-17.67-8.34-28.21c3.18,5.39,12.75,16.92,19.62,4.41-1.72,6.63-3.92,20.12-.24,23.8-2.21,2.94-2.7,7.11-1.48,8.59C387.07,424.14,377,426.84,374.56,430Zm54.9,113.22c-3.76,4.76-8.27,9-13.28,11s-11.27-2.51-15-9c0,0-1.75,9-1.25,12.78-1.75-3.26-17-58.62-18.29-66.88,0,0,15,5.76,18,8s7,.5,9.27-1.15,10-6.86,16.28-9.37c-2,1-11.78,9.37-14.78,12.27s-.5,5.26,1.75,6.52,17.79,16.78,19.54,18.28,4.78.37,6.26-1c3.26-3,8.52-7,10.52-9.27,0,0,3.26,1.51,4,2.76C452.5,518.2,433.22,538.49,429.46,543.25Zm24.29-157.06c-2.25-1,10.78-16.28,10.78-16.28l3.25,4.26S456,387.19,453.75,386.19Zm12.78-34.82c2-2.25,19.79-17.53,19.79-17.53l-6.26,13.53L491.18,331l-2.61,12.36s-11.52,9.52-15,15.28a149.16,149.16,0,0,1,4.51-14.28Zm29.06,47.1c-5-7.52-19.79-25.55-19.79-25.55,3.76,4.25,17.53,13.77,23,13.52C496.09,389.2,495.34,396,495.59,398.47Zm42.22-72c0,11.32-3.23,58.19-5.66,67.89s-13.33,12.53-23.84,17.38C528.11,385.5,534.17,350.75,537.81,326.5Zm49.3,185.89c-7.68,1.21-45.66,12.12-66.67,28.29l19.8-61.83a169.2,169.2,0,0,1-9.32,47.68c1.21-.81,21.31-17.48,25.48-28.52,1.9-5,7.68-21.59,8.08-33.71,1.62,5.25,4.85,24.65,5.26,40,17.37-88.5-16.57-217.41-20.21-229.94-1.21,8.49-5.25,18.59-8.89,31.52.81-3.64,11-65.63,7.22-103.87C566.85,238.39,589.13,490.16,587.11,512.39Z"/></g></g></svg>